<svg width="188" height="114" viewBox="0 0 188 114" fill="none" xmlns="http://www.w3.org/2000/svg">
<path d="M166.776 113.861H8.20589C6.08513 113.859 4.05191 113.066 2.5523 111.655C1.05269 110.245 0.209165 108.333 0.206787 106.339V22.7165C0.209165 20.7223 1.05269 18.8104 2.5523 17.4003C4.05191 15.9902 6.08513 15.1971 8.20589 15.1948H166.776C168.897 15.1971 170.93 15.9903 172.43 17.4003C173.93 18.8104 174.773 20.7223 174.775 22.7165V106.339C174.773 108.333 173.93 110.245 172.43 111.655C170.93 113.066 168.897 113.859 166.776 113.861V113.861ZM8.20589 16.0797C6.33463 16.0817 4.54062 16.7816 3.21744 18.0258C1.89426 19.27 1.14998 20.9569 1.14786 22.7165V106.339C1.14998 108.099 1.89426 109.786 3.21744 111.03C4.54062 112.274 6.33463 112.974 8.20589 112.976H166.776C168.648 112.974 170.442 112.274 171.765 111.03C173.088 109.786 173.832 108.099 173.834 106.339V22.7165C173.832 20.9569 173.088 19.27 171.765 18.0258C170.442 16.7816 168.648 16.0817 166.776 16.0797H8.20589Z" fill="#3F3D56"/>
<path d="M126.593 48.5168H96.0081C95.4465 48.5168 94.9079 48.7266 94.5108 49.1C94.1138 49.4734 93.8907 49.9798 93.8907 50.5079C93.8907 51.0359 94.1138 51.5424 94.5108 51.9158C94.9079 52.2892 95.4465 52.4989 96.0081 52.4989H126.593C127.154 52.4989 127.693 52.2892 128.09 51.9158C128.487 51.5424 128.71 51.0359 128.71 50.5079C128.71 49.9798 128.487 49.4734 128.09 49.1C127.693 48.7266 127.154 48.5168 126.593 48.5168Z" fill="#3F3D56"/>
<path d="M156.406 61.1267H95.6035C94.6576 61.1267 93.8907 62.0205 93.8907 63.1177C93.8907 64.215 94.6576 65.1087 95.6035 65.1087H156.406C157.352 65.1087 158.119 64.215 158.119 63.1177C158.119 62.0205 157.352 61.1267 156.406 61.1267Z" fill="#3F3D56"/>
<path d="M156.406 74.0405H95.6035C94.6576 74.0405 93.8907 74.9343 93.8907 76.0315C93.8907 77.1288 94.6576 78.0225 95.6035 78.0225H156.406C157.352 78.0225 158.119 77.1288 158.119 76.0315C158.119 74.9343 157.352 74.0405 156.406 74.0405Z" fill="#3F3D56"/>
<path d="M72.6691 95.4994H19.9691C18.6593 95.498 17.4035 95.0081 16.4772 94.1371C15.551 93.2662 15.03 92.0854 15.0285 90.8537V35.5476C15.03 34.3159 15.551 33.135 16.4772 32.2641C17.4035 31.3932 18.6593 30.9033 19.9691 30.9019H72.6691C73.979 30.9033 75.2348 31.3932 76.161 32.2641C77.0872 33.135 77.6082 34.3159 77.6097 35.5476V90.8537C77.6082 92.0854 77.0872 93.2662 76.161 94.1371C75.2348 95.0081 73.979 95.498 72.6691 95.4994V95.4994Z" fill="#6357EB"/>
<path d="M170.541 32.4502C179.896 32.4502 187.48 25.3189 187.48 16.522C187.48 7.72516 179.896 0.593872 170.541 0.593872C161.185 0.593872 153.601 7.72516 153.601 16.522C153.601 25.3189 161.185 32.4502 170.541 32.4502Z" fill="#6357EB"/>
<path d="M169.589 22.97C169.127 22.9708 168.677 22.8304 168.307 22.5699L168.285 22.5537L163.46 19.0803C163.236 18.9195 163.048 18.7187 162.906 18.4895C162.765 18.2603 162.673 18.0071 162.636 17.7444C162.598 17.4817 162.617 17.2147 162.689 16.9586C162.762 16.7025 162.887 16.4625 163.059 16.2521C163.23 16.0417 163.444 15.8652 163.688 15.7327C163.932 15.6001 164.202 15.5141 164.481 15.4796C164.76 15.4451 165.044 15.4627 165.317 15.5315C165.589 15.6003 165.844 15.7189 166.067 15.8805L169.192 18.1337L176.577 9.07745C176.749 8.8674 176.962 8.69114 177.206 8.55871C177.45 8.42629 177.719 8.3403 177.998 8.30566C178.277 8.27102 178.56 8.28842 178.832 8.35684C179.104 8.42526 179.359 8.54337 179.582 8.70443L179.537 8.76305L179.584 8.70528C180.034 9.03092 180.329 9.51131 180.403 10.0411C180.478 10.5709 180.326 11.1067 179.98 11.5312L171.294 22.1834C171.093 22.4289 170.835 22.6276 170.539 22.764C170.243 22.9004 169.918 22.9709 169.589 22.97Z" fill="white"/>
<path d="M59.3993 48.8027C59.3993 48.513 59.2859 48.2353 59.0841 48.0304C58.8823 47.8256 58.6085 47.7106 58.323 47.7106H34.6448C34.3594 47.7106 34.0856 47.8256 33.8838 48.0304C33.6819 48.2353 33.5685 48.513 33.5685 48.8027V49.8948H59.3993V48.8027Z" fill="white"/>
<path d="M61.5303 53.1711C61.5303 52.8814 61.4169 52.6037 61.2151 52.3988C61.0133 52.194 60.7395 52.079 60.454 52.079H32.4707C32.1852 52.079 31.9115 52.194 31.7096 52.3988C31.5078 52.6037 31.3944 52.8814 31.3944 53.1711V54.2632H61.5303V53.1711Z" fill="white"/>
<path d="M61.5304 56.4474H31.1361C30.5995 56.4474 30.0848 56.6637 29.7054 57.0487C29.3259 57.4338 29.1127 57.956 29.1127 58.5005V78.4205C29.1127 78.9651 29.3259 79.4873 29.7054 79.8723C30.0848 80.2574 30.5995 80.4737 31.1361 80.4737H61.5304C62.067 80.4737 62.5817 80.2574 62.9611 79.8723C63.3406 79.4873 63.5538 78.9651 63.5538 78.4205V58.5005C63.5538 57.956 63.3406 57.4338 62.9611 57.0487C62.5817 56.6637 62.067 56.4474 61.5304 56.4474V56.4474ZM36.1731 60.2151C36.8118 60.2151 37.436 60.4073 37.967 60.7673C38.498 61.1273 38.9118 61.639 39.1562 62.2377C39.4006 62.8363 39.4645 63.4951 39.34 64.1306C39.2154 64.7662 38.9078 65.35 38.4563 65.8082C38.0047 66.2664 37.4294 66.5784 36.8031 66.7048C36.1767 66.8312 35.5275 66.7664 34.9375 66.5184C34.3475 66.2704 33.8432 65.8505 33.4885 65.3117C33.1337 64.7729 32.9443 64.1395 32.9443 63.4915C32.9443 62.6225 33.2845 61.7892 33.89 61.1748C34.4955 60.5603 35.3168 60.2151 36.1731 60.2151V60.2151ZM59.2486 76.1053H33.4179L41.4469 67.9473C41.5901 67.8032 41.7835 67.7224 41.9851 67.7224C42.1867 67.7224 42.3801 67.8032 42.5232 67.9473L46.4839 71.9662L51.9407 66.2763C52.0838 66.1323 52.2772 66.0514 52.4788 66.0514C52.6804 66.0514 52.8738 66.1323 53.017 66.2763L59.2486 72.5996V76.1053Z" fill="white"/>
</svg>
