<svg width="50" height="40" viewBox="0 0 50 40" fill="none" xmlns="http://www.w3.org/2000/svg">
<path d="M11.3648 39.8032V19.3037L5.37414 13.4876L0.00214386 10.26V36.1856C0.00214386 38.1873 1.53033 39.8032 3.41103 39.8032H11.3648Z" fill="#4285F4"/>
<path d="M38.6352 39.803H46.589C48.4753 39.803 49.9979 38.181 49.9979 36.1854V10.26L43.9132 13.9568L38.6352 19.3035V39.803Z" fill="#34A853"/>
<path d="M11.3648 19.3035L10.5497 11.2938L11.3648 3.62769L25 14.4803L38.6352 3.62769L39.547 10.8799L38.6352 19.3035L25 30.1562L11.3648 19.3035Z" fill="#EA4335"/>
<path d="M38.6352 3.62771V19.3036L49.9979 10.2598V5.43641C49.9979 0.962838 45.1858 -1.58742 41.8169 1.09548L38.6352 3.62771Z" fill="#FBBC04"/>
<path d="M0.00214386 10.2599L5.22806 14.4195L11.3648 19.3037V3.6278L8.18308 1.09557C4.80837 -1.58753 0.00214386 0.962932 0.00214386 5.4363V10.2597V10.2599Z" fill="#C5221F"/>
</svg>
