<svg width="28" height="28" viewBox="0 0 28 28" fill="none" xmlns="http://www.w3.org/2000/svg">
<path d="M14.0001 10.355C11.9931 10.355 10.3552 11.9929 10.3552 13.9999C10.3552 16.007 11.9931 17.6449 14.0001 17.6449C16.0072 17.6449 17.6451 16.007 17.6451 13.9999C17.6451 11.9929 16.0072 10.355 14.0001 10.355ZM24.9322 13.9999C24.9322 12.4906 24.9458 10.9949 24.8611 9.48822C24.7763 7.73822 24.3771 6.18509 23.0974 4.9054C21.815 3.62298 20.2646 3.2265 18.5146 3.14173C17.0052 3.05697 15.5095 3.07064 14.0029 3.07064C12.4935 3.07064 10.9978 3.05697 9.49115 3.14173C7.74115 3.2265 6.18802 3.62572 4.90833 4.9054C3.62591 6.18783 3.22943 7.73822 3.14466 9.48822C3.0599 10.9976 3.07357 12.4933 3.07357 13.9999C3.07357 15.5066 3.0599 17.005 3.14466 18.5117C3.22943 20.2617 3.62865 21.8148 4.90833 23.0945C6.19076 24.3769 7.74115 24.7734 9.49115 24.8581C11.0005 24.9429 12.4962 24.9292 14.0029 24.9292C15.5122 24.9292 17.0079 24.9429 18.5146 24.8581C20.2646 24.7734 21.8177 24.3742 23.0974 23.0945C24.3798 21.812 24.7763 20.2617 24.8611 18.5117C24.9486 17.005 24.9322 15.5093 24.9322 13.9999V13.9999ZM14.0001 19.6081C10.8966 19.6081 8.39193 17.1035 8.39193 13.9999C8.39193 10.8964 10.8966 8.39173 14.0001 8.39173C17.1036 8.39173 19.6083 10.8964 19.6083 13.9999C19.6083 17.1035 17.1036 19.6081 14.0001 19.6081ZM19.838 9.47181C19.1134 9.47181 18.5283 8.88665 18.5283 8.16204C18.5283 7.43743 19.1134 6.85228 19.838 6.85228C20.5626 6.85228 21.1478 7.43743 21.1478 8.16204C21.148 8.33411 21.1143 8.50452 21.0485 8.66352C20.9828 8.82253 20.8863 8.967 20.7646 9.08867C20.643 9.21034 20.4985 9.3068 20.3395 9.37255C20.1805 9.4383 20.0101 9.47203 19.838 9.47181V9.47181Z" fill="#FD4F64"/>
</svg>
