<svg width="49" height="50" viewBox="0 0 49 50" fill="none" xmlns="http://www.w3.org/2000/svg">
<path d="M24.5 0C38.0087 0 49 9.1 49 20.2875C49 24.7656 47.3003 28.7969 43.7478 32.7688C38.6089 38.8063 27.1154 46.1594 24.5 47.2844C21.9581 48.3781 22.2521 46.6688 22.3685 45.9938L22.3777 45.9375L22.7268 43.7969C22.8095 43.1594 22.8952 42.1687 22.6472 41.5375C22.3716 40.8406 21.2874 40.4781 20.4912 40.3031C8.71587 38.7188 0 30.3156 0 20.2875C0 9.1 10.9944 0 24.5 0ZM15.3799 24.0187H10.7096V15.3688C10.7096 15.24 10.6597 15.1165 10.5707 15.0251C10.4818 14.9338 10.3611 14.8821 10.2349 14.8813H8.51375C8.45101 14.8813 8.38889 14.8939 8.33092 14.9184C8.27296 14.9429 8.22029 14.9788 8.17593 15.024C8.13157 15.0693 8.09638 15.123 8.07237 15.1822C8.04836 15.2413 8.036 15.3047 8.036 15.3688V26.2625C8.036 26.3906 8.08806 26.5125 8.17075 26.5969V26.6L8.17688 26.6062L8.183 26.6125C8.27181 26.6997 8.39053 26.7479 8.51375 26.7469H15.3799C15.6432 26.7469 15.8546 26.5281 15.8546 26.2594V24.5094C15.855 24.4454 15.843 24.3819 15.8194 24.3226C15.7957 24.2633 15.7609 24.2093 15.7168 24.1637C15.6727 24.1182 15.6203 24.0819 15.5625 24.0571C15.5047 24.0322 15.4426 24.0192 15.3799 24.0187V24.0187ZM17.8023 14.8813C17.6756 14.8813 17.5541 14.9326 17.4645 15.024C17.3749 15.1155 17.3246 15.2395 17.3246 15.3688V26.2625C17.3246 26.5313 17.5389 26.7469 17.8023 26.7469H19.5234C19.7868 26.7469 19.9981 26.5281 19.9981 26.2625V15.3688C19.9981 15.24 19.9482 15.1165 19.8593 15.0251C19.7703 14.9338 19.6496 14.8821 19.5234 14.8813H17.8023ZM29.6327 14.8813C29.506 14.8813 29.3845 14.9326 29.2949 15.024C29.2053 15.1155 29.155 15.2395 29.155 15.3688V21.8375L24.2642 15.1C24.2518 15.0836 24.2385 15.0679 24.2244 15.0531V15.05C24.2147 15.0391 24.2045 15.0286 24.1938 15.0188L24.1846 15.0094C24.1741 14.9991 24.1628 14.9897 24.1509 14.9813H24.1478L24.1325 14.9687L24.1233 14.9625C24.1185 14.9589 24.1134 14.9557 24.108 14.9531L24.0835 14.9375H24.0774L24.0682 14.9312L24.0376 14.9188L24.0253 14.9125C24.0153 14.9088 24.0051 14.9057 23.9947 14.9031H23.9886L23.9794 14.9L23.9518 14.8937H23.9334L23.9242 14.8906H23.912L23.9059 14.8875H22.148C22.0218 14.8875 21.9008 14.9384 21.8113 15.0292C21.7218 15.1199 21.6711 15.2431 21.6703 15.3719V26.2656C21.6703 26.5344 21.8846 26.75 22.148 26.75H23.863C24.1294 26.75 24.3438 26.5312 24.3438 26.2656V19.7969L29.2438 26.5469C29.2764 26.5934 29.3168 26.6336 29.3633 26.6656L29.3663 26.6688L29.3969 26.6875L29.4092 26.6937C29.4171 26.6985 29.4253 26.7027 29.4337 26.7062L29.4551 26.7156L29.4704 26.7219C29.4805 26.7253 29.4908 26.7284 29.5011 26.7312H29.5102C29.5501 26.7429 29.5913 26.7492 29.6327 26.75H31.3478C31.6142 26.75 31.8286 26.5312 31.8286 26.2656V15.3688C31.8286 15.2395 31.7782 15.1155 31.6886 15.024C31.599 14.9326 31.4775 14.8813 31.3508 14.8813H29.6327V14.8813ZM41.3162 17.1219V15.3719C41.3166 15.3079 41.3046 15.2444 41.281 15.1851C41.2574 15.1258 41.2225 15.0718 41.1784 15.0262C41.1343 14.9807 41.0819 14.9444 41.0241 14.9196C40.9663 14.8947 40.9042 14.8817 40.8415 14.8813H33.9754C33.8518 14.8814 33.7331 14.9307 33.6446 15.0188H33.6416L33.6385 15.025L33.6324 15.0344C33.5469 15.1239 33.4986 15.2437 33.4976 15.3688V26.2625C33.4976 26.3906 33.5497 26.5125 33.6324 26.5969L33.6385 26.6062L33.6446 26.6125C33.7336 26.6994 33.8522 26.7476 33.9754 26.7469H40.8415C41.1049 26.7469 41.3162 26.5281 41.3162 26.2594V24.5094C41.3166 24.4454 41.3046 24.3819 41.281 24.3226C41.2574 24.2633 41.2225 24.2093 41.1784 24.1637C41.1343 24.1182 41.0819 24.0819 41.0241 24.0571C40.9663 24.0322 40.9042 24.0192 40.8415 24.0187H36.1681V22.1781H40.8384C41.1018 22.1781 41.3131 21.9594 41.3131 21.6906V19.9406C41.3135 19.8766 41.3016 19.8131 41.2779 19.7538C41.2543 19.6945 41.2194 19.6406 41.1754 19.595C41.1313 19.5494 41.0788 19.5132 41.021 19.4883C40.9632 19.4634 40.9012 19.4504 40.8384 19.45H36.1681V17.6094H40.8384C41.1018 17.6094 41.3131 17.3906 41.3131 17.1219H41.3162Z" fill="#43F760"/>
</svg>
