<svg width="188" height="114" viewBox="0 0 188 114" fill="none" xmlns="http://www.w3.org/2000/svg">
<path d="M166.696 113.861H8.12563C6.00487 113.859 3.97165 113.066 2.47204 111.655C0.97243 110.245 0.128903 108.333 0.126526 106.339V22.7165C0.128903 20.7223 0.97243 18.8104 2.47204 17.4003C3.97165 15.9902 6.00487 15.1971 8.12563 15.1948H166.696C168.817 15.1971 170.85 15.9903 172.35 17.4003C173.849 18.8104 174.693 20.7223 174.695 22.7165V106.339C174.693 108.333 173.849 110.245 172.35 111.655C170.85 113.066 168.817 113.859 166.696 113.861V113.861ZM8.12563 16.0797C6.25437 16.0817 4.46036 16.7816 3.13718 18.0258C1.814 19.27 1.06971 20.9569 1.0676 22.7165V106.339C1.06971 108.099 1.814 109.786 3.13718 111.03C4.46036 112.274 6.25437 112.974 8.12563 112.976H166.696C168.567 112.974 170.361 112.274 171.685 111.03C173.008 109.786 173.752 108.099 173.754 106.339V22.7165C173.752 20.9569 173.008 19.27 171.685 18.0258C170.361 16.7816 168.567 16.0817 166.696 16.0797H8.12563Z" fill="#3F3D56"/>
<path d="M126.512 48.5168H95.9276C95.366 48.5168 94.8274 48.7266 94.4303 49.1C94.0333 49.4734 93.8102 49.9798 93.8102 50.5079C93.8102 51.0359 94.0333 51.5424 94.4303 51.9158C94.8274 52.2892 95.366 52.4989 95.9276 52.4989H126.512C127.074 52.4989 127.613 52.2892 128.01 51.9158C128.407 51.5424 128.63 51.0359 128.63 50.5079C128.63 49.9798 128.407 49.4734 128.01 49.1C127.613 48.7266 127.074 48.5168 126.512 48.5168Z" fill="#3F3D56"/>
<path d="M156.325 61.1267H95.523C94.5771 61.1267 93.8102 62.0205 93.8102 63.1177C93.8102 64.215 94.5771 65.1087 95.523 65.1087H156.325C157.271 65.1087 158.038 64.215 158.038 63.1177C158.038 62.0205 157.271 61.1267 156.325 61.1267Z" fill="#3F3D56"/>
<path d="M156.325 74.0405H95.523C94.5771 74.0405 93.8102 74.9343 93.8102 76.0315C93.8102 77.1288 94.5771 78.0225 95.523 78.0225H156.325C157.271 78.0225 158.038 77.1288 158.038 76.0315C158.038 74.9343 157.271 74.0405 156.325 74.0405Z" fill="#3F3D56"/>
<path d="M72.5893 95.4994H19.8893C18.5794 95.498 17.3236 95.0081 16.3974 94.1371C15.4712 93.2662 14.9502 92.0854 14.9487 90.8537V35.5476C14.9502 34.3159 15.4712 33.135 16.3974 32.2641C17.3236 31.3932 18.5794 30.9033 19.8893 30.9019H72.5893C73.8991 30.9033 75.1549 31.3932 76.0812 32.2641C77.0074 33.135 77.5284 34.3159 77.5299 35.5476V90.8537C77.5284 92.0854 77.0074 93.2662 76.0812 94.1371C75.1549 95.0081 73.8991 95.498 72.5893 95.4994V95.4994Z" fill="#6357EB"/>
<path d="M170.46 32.4502C179.815 32.4502 187.399 25.3189 187.399 16.522C187.399 7.72516 179.815 0.593872 170.46 0.593872C161.105 0.593872 153.521 7.72516 153.521 16.522C153.521 25.3189 161.105 32.4502 170.46 32.4502Z" fill="#6357EB"/>
<path d="M169.508 22.97C169.046 22.9708 168.597 22.8304 168.227 22.5699L168.204 22.5537L163.38 19.0803C163.156 18.9195 162.967 18.7187 162.826 18.4895C162.685 18.2603 162.593 18.0071 162.555 17.7444C162.518 17.4817 162.536 17.2147 162.609 16.9586C162.681 16.7025 162.807 16.4625 162.979 16.2521C163.15 16.0417 163.364 15.8652 163.608 15.7327C163.852 15.6001 164.121 15.5141 164.401 15.4796C164.68 15.4451 164.964 15.4627 165.236 15.5315C165.509 15.6003 165.764 15.7189 165.987 15.8805L169.112 18.1337L176.497 9.07745C176.668 8.8674 176.882 8.69114 177.126 8.55871C177.369 8.42629 177.638 8.3403 177.917 8.30566C178.196 8.27102 178.48 8.28842 178.752 8.35684C179.024 8.42526 179.279 8.54337 179.502 8.70443L179.456 8.76305L179.503 8.70528C179.954 9.03092 180.249 9.51131 180.323 10.0411C180.398 10.5709 180.245 11.1067 179.9 11.5312L171.214 22.1834C171.013 22.4289 170.754 22.6276 170.459 22.764C170.163 22.9004 169.838 22.9709 169.508 22.97Z" fill="white"/>
<g clip-path="url(#clip0_22_50)">
<path d="M32.5456 50.0474C31.9314 50.0474 31.3424 50.2739 30.9082 50.6771C30.4739 51.0804 30.2299 51.6273 30.2299 52.1975V69.3987C30.2299 69.9689 30.4739 70.5158 30.9082 70.9191C31.3424 71.3223 31.9314 71.5488 32.5456 71.5488H54.7436C55.9718 71.5491 57.1496 72.0023 58.0179 72.8088L62.6493 77.1091V52.1975C62.6493 51.6273 62.4053 51.0804 61.971 50.6771C61.5368 50.2739 60.9478 50.0474 60.3336 50.0474H32.5456ZM60.3336 47.8972C61.5619 47.8972 62.7399 48.3503 63.6085 49.1567C64.477 49.9632 64.965 51.057 64.965 52.1975V79.7043C64.9649 79.9171 64.8969 80.125 64.7695 80.3018C64.6421 80.4786 64.4611 80.6164 64.2494 80.6977C64.0377 80.7789 63.8048 80.8 63.5801 80.7583C63.3555 80.7166 63.1492 80.614 62.9874 80.4633L56.3808 74.329C55.9466 73.9257 55.3577 73.6991 54.7436 73.699H32.5456C31.3173 73.699 30.1393 73.2459 29.2707 72.4395C28.4022 71.633 27.9142 70.5392 27.9142 69.3987V52.1975C27.9142 51.057 28.4022 49.9632 29.2707 49.1567C30.1393 48.3503 31.3173 47.8972 32.5456 47.8972H60.3336Z" fill="white"/>
<path d="M46.4396 56.4828C50.2928 52.8039 59.9283 59.2414 46.4396 67.5173C32.9508 59.2393 42.5863 52.8039 46.4396 56.4828V56.4828Z" fill="white"/>
</g>
<defs>
<clipPath id="clip0_22_50">
<rect width="37.0507" height="34.4023" fill="white" transform="translate(27.9142 47.8972)"/>
</clipPath>
</defs>
</svg>
