<svg width="31" height="32" viewBox="0 0 31 32" fill="none" xmlns="http://www.w3.org/2000/svg">
<path d="M30.642 0.388293C30.4675 0.209199 30.247 0.085202 30.0065 0.0308796C29.766 -0.0234427 29.5154 -0.00583183 29.2842 0.0816418L0.834548 10.7478C0.589193 10.8437 0.377957 11.0143 0.228895 11.237C0.079833 11.4597 0 11.7238 0 11.9944C0 12.2649 0.079833 12.5291 0.228895 12.7517C0.377957 12.9744 0.589193 13.145 0.834548 13.241L11.9429 17.8141L20.1415 9.3345L21.9649 11.2144L13.7274 19.7073L18.1759 31.16C18.2717 31.4081 18.4376 31.6208 18.652 31.7706C18.8665 31.9203 19.1196 32.0003 19.3786 32C19.6399 31.9945 19.8935 31.9074 20.1058 31.7503C20.3182 31.5933 20.4795 31.3735 20.5683 31.12L30.9136 1.78822C31.0017 1.55233 31.023 1.29549 30.9749 1.04762C30.9268 0.799761 30.8114 0.571097 30.642 0.388293Z" fill="#6357EB"/>
</svg>
