<svg width="44" height="45" viewBox="0 0 44 45" fill="none" xmlns="http://www.w3.org/2000/svg">
<path d="M22 0C9.84964 0 0 10.0735 0 22.5C0 34.9265 9.84964 45 22 45C34.1504 45 44 34.9265 44 22.5C44 10.0735 34.1504 0 22 0Z" fill="#40B3E0"/>
<path d="M32.7049 12.9427L28.7753 33.2048C28.7753 33.2048 28.2258 34.61 26.7145 33.9355L17.6468 26.8255L14.3495 25.1957L8.79897 23.2846C8.79897 23.2846 7.94716 22.9756 7.86466 22.3011C7.78216 21.6266 8.82647 21.2613 8.82647 21.2613L30.8911 12.409C30.8911 12.409 32.7047 11.5941 32.7047 12.943" fill="white"/>
<path d="M16.95 32.9771C16.95 32.9771 16.6853 32.9518 16.3553 31.8837C16.0258 30.8159 14.3495 25.1954 14.3495 25.1954L27.6763 16.54C27.6763 16.54 28.4458 16.0622 28.4183 16.54C28.4183 16.54 28.5557 16.6244 28.1433 17.0178C27.7313 17.4113 17.6744 26.6569 17.6744 26.6569" fill="#D2E5F1"/>
<path d="M21.1236 29.5514L17.5371 32.8958C17.5371 32.8958 17.2566 33.1134 16.95 32.977L17.6368 26.7649" fill="#B5CFE4"/>
</svg>
