<svg width="28" height="28" viewBox="0 0 28 28" fill="none" xmlns="http://www.w3.org/2000/svg">
<path d="M8.6078 22.4114L9.01648 22.6134C10.7195 23.6234 12.6268 24.0947 14.5341 24.0947C20.5285 24.0947 25.4329 19.2468 25.4329 13.3217C25.4329 10.4938 24.2749 7.73314 22.2314 5.71316C20.1878 3.69318 17.4631 2.54858 14.5341 2.54858C8.53974 2.54858 3.63518 7.39646 3.70334 13.389C3.70334 15.4089 4.3164 17.3616 5.33813 19.0448L5.61058 19.4489L4.52078 23.4215L8.6078 22.4114Z" fill="#00E676"/>
<path d="M23.3895 4.63591C21.0735 2.27934 17.8719 1 14.6023 1C7.65433 1 2.06865 6.58851 2.13671 13.389C2.13671 15.5436 2.74977 17.631 3.7716 19.5162L2.00049 25.9127L8.6079 24.2294C10.4471 25.2395 12.4905 25.7108 14.5342 25.7108C21.4141 25.7108 26.9997 20.1222 26.9997 13.3218C26.9997 10.0225 25.7055 6.92519 23.3896 4.63591H23.3895ZM14.6023 23.6236C12.7631 23.6236 10.9239 23.1523 9.35719 22.2097L8.94851 22.0076L4.99772 23.0176L6.01945 19.1797L5.747 18.7757C2.74977 13.9952 4.18027 7.66583 9.08474 4.70319C13.9892 1.74064 20.3242 3.15463 23.3214 8.00251C26.3185 12.8504 24.888 19.1123 19.9837 22.0749C18.4168 23.0848 16.5096 23.6235 14.6023 23.6235V23.6236ZM20.5966 16.1498L19.8473 15.8131C19.8473 15.8131 18.7575 15.3418 18.0763 15.0051C18.0082 15.0051 17.9401 14.9377 17.8719 14.9377C17.6676 14.9377 17.5313 15.0051 17.3951 15.0725C17.3951 15.0725 17.327 15.1398 16.3734 16.2171C16.3052 16.3517 16.169 16.4191 16.0328 16.4191H15.9646C15.8965 16.4191 15.7603 16.3517 15.6922 16.2845L15.3515 16.1498C14.6023 15.8131 13.9211 15.4091 13.3761 14.8705C13.2399 14.7358 13.0355 14.6012 12.8993 14.4665C12.4225 13.9952 11.9456 13.4565 11.6051 12.8505L11.537 12.7158C11.4689 12.6485 11.4689 12.5812 11.4007 12.4465C11.4007 12.3119 11.4007 12.1772 11.4689 12.1098C11.4689 12.1098 11.7414 11.7732 11.9456 11.5712C12.082 11.4365 12.15 11.2346 12.2863 11.0999C12.4225 10.8979 12.4906 10.6286 12.4225 10.4265C12.3544 10.0899 11.537 8.27191 11.3327 7.86795C11.1964 7.66593 11.0602 7.59865 10.8558 7.53127H10.1066C9.97025 7.53127 9.83412 7.59865 9.6978 7.59865L9.62964 7.66593C9.49341 7.7333 9.35719 7.86795 9.22096 7.93523C9.08474 8.06998 9.01658 8.20454 8.88035 8.33929C8.40352 8.94527 8.13107 9.68591 8.13107 10.4265C8.13107 10.9652 8.26729 11.5039 8.47168 11.9752L8.53984 12.1772C9.1529 13.4565 9.97025 14.6012 11.0602 15.6111L11.3327 15.8804C11.537 16.0824 11.7414 16.2171 11.8776 16.419C13.3081 17.6311 14.9429 18.5064 16.782 18.9777C16.9864 19.045 17.2589 19.045 17.4633 19.1124H18.1444C18.485 19.1124 18.8937 18.9777 19.1662 18.843C19.3705 18.7084 19.5067 18.7084 19.643 18.5737L19.7793 18.439C19.9155 18.3043 20.0517 18.2371 20.1879 18.1024C20.3242 17.9678 20.4604 17.8331 20.5286 17.6984C20.6648 17.4291 20.7328 17.0924 20.801 16.7558V16.2845C20.801 16.2845 20.7328 16.2171 20.5966 16.1498V16.1498Z" fill="white"/>
<path d="M13.7276 14.5149C13.6395 14.4277 13.5356 14.3456 13.4571 14.2836L13.4478 14.2763C13.357 14.2045 13.2954 14.155 13.2508 14.1109C12.79 13.6555 12.3532 13.1579 12.0462 12.6147L11.9831 12.49L11.9464 12.4176L11.923 12.3944C11.9194 12.3851 11.915 12.3738 11.9098 12.3609C11.9362 12.329 11.971 12.2875 12.0105 12.2414C12.1022 12.1343 12.2104 12.0126 12.2971 11.9268C12.4104 11.8149 12.4896 11.6839 12.5358 11.6075C12.5385 11.6032 12.541 11.599 12.5434 11.595C12.6007 11.5005 12.6212 11.4719 12.6378 11.4555L12.6731 11.4206L12.7008 11.3794C12.884 11.1078 13.0247 10.6886 12.9055 10.2956C12.8724 10.1573 12.7949 9.95243 12.7166 9.75626C12.6245 9.52536 12.5073 9.24863 12.387 8.97273C12.1481 8.42435 11.8879 7.85783 11.7789 7.64231L11.7647 7.6143L11.7472 7.58828C11.6478 7.44108 11.5346 7.32366 11.3949 7.23163C11.262 7.14402 11.1262 7.09393 11.0124 7.05641L10.9361 7.03127H10.8559H10.1066C9.97547 7.03127 9.85452 7.0615 9.79338 7.07678C9.78938 7.07779 9.78563 7.07872 9.78215 7.07958C9.71368 7.09652 9.69811 7.09842 9.69722 7.09863C9.69717 7.09864 9.69717 7.09865 9.69721 7.09865H9.4926L9.34656 7.2428L9.32718 7.26192C9.25046 7.3076 9.18323 7.35757 9.13802 7.39116C9.13438 7.39387 9.13088 7.39647 9.12753 7.39895C9.05038 7.45614 9.01965 7.477 8.99956 7.48692L8.92693 7.52279L8.86934 7.57976C8.77575 7.67233 8.70645 7.7637 8.65719 7.82863L8.65237 7.83499C8.5997 7.90439 8.56827 7.9447 8.52873 7.98381L8.50663 8.00567L8.48742 8.03009C7.94717 8.71666 7.63107 9.5645 7.63107 10.4265C7.63107 11.0387 7.78311 11.6378 8.00444 12.1544L8.06608 12.3371L8.0758 12.3659L8.08895 12.3933C8.72652 13.7237 9.57866 14.9185 10.7144 15.9723L10.9811 16.2359C11.0636 16.3175 11.1552 16.3977 11.227 16.4604C11.2533 16.4834 11.2769 16.5041 11.2965 16.5217C11.3817 16.5982 11.43 16.6496 11.4631 16.6986L11.5017 16.7559L11.5544 16.8005C13.0353 18.0553 14.7326 18.9662 16.6435 19.4583C16.7839 19.5023 16.9334 19.5233 17.0369 19.5379C17.0423 19.5386 17.0476 19.5394 17.0528 19.5401C17.1831 19.5585 17.2551 19.5702 17.3067 19.5872L17.383 19.6124H17.4633H18.1444C18.5901 19.6124 19.0771 19.4448 19.3877 19.2913L19.4155 19.2776L19.4414 19.2605C19.493 19.2265 19.5309 19.21 19.5992 19.1802C19.6091 19.1758 19.6198 19.1712 19.6312 19.1662C19.723 19.1259 19.8596 19.0626 19.9944 18.9293L20.1308 18.7946C20.1703 18.7556 20.2111 18.7245 20.2813 18.6724L20.2878 18.6676C20.3534 18.619 20.4458 18.5506 20.5394 18.458C20.5464 18.4512 20.5536 18.444 20.5612 18.4366C20.6797 18.3199 20.8685 18.134 20.9747 17.924C21.1417 17.5939 21.2212 17.2007 21.2846 16.8872L21.2911 16.855L21.301 16.8059V16.7558V16.2845V16.0757L21.1525 15.9289L20.801 16.2845C21.1525 15.9289 21.1524 15.9288 21.1523 15.9287L21.1522 15.9285L21.1518 15.9282L21.1511 15.9274L21.1495 15.9259L21.146 15.9226L21.1377 15.9147C21.1315 15.909 21.124 15.9022 21.1153 15.8947C21.0979 15.8796 21.0753 15.8612 21.0476 15.8407C20.9923 15.7997 20.9158 15.7498 20.818 15.7015L20.5966 16.1498L20.8015 15.6937L20.0523 15.3571L20.0523 15.357L20.0458 15.3542L20.0458 15.3542L20.0457 15.3541L20.0451 15.3539L20.0429 15.3529L20.0339 15.349L19.9987 15.3337L19.8671 15.2763C19.7552 15.2272 19.5988 15.1583 19.4214 15.0789C19.0649 14.9195 18.6294 14.7207 18.2979 14.5569L18.1931 14.5051H18.1582C18.1409 14.4971 18.1195 14.4878 18.0969 14.4795C18.049 14.4617 17.97 14.4377 17.8719 14.4377C17.55 14.4377 17.3257 14.5489 17.1845 14.6188L17.1734 14.6243L17.101 14.6601L17.0436 14.7169L17.3951 15.0725C17.0436 14.7169 17.0434 14.7171 17.0433 14.7172L17.0429 14.7176L17.0423 14.7182L17.041 14.7194L17.0388 14.7217L17.0348 14.7258L17.0268 14.7342L17.0015 14.7614C16.9785 14.7865 16.9388 14.8301 16.8701 14.9065C16.7326 15.0593 16.4763 15.3465 15.9994 15.8852L15.9708 15.857L15.876 15.8195L15.5461 15.6891C14.8312 15.3669 14.2122 14.9937 13.7276 14.5149ZM13.7276 14.5149L13.3761 14.8705M13.7276 14.5149C13.7276 14.5149 13.7276 14.5148 13.7276 14.5148L13.3761 14.8705M13.3761 14.8705C13.308 14.8031 13.2229 14.7358 13.1377 14.6685C13.0526 14.6012 12.9674 14.5338 12.8993 14.4665C12.4225 13.9952 11.9456 13.4565 11.6051 12.8505L15.3515 16.1498C14.6023 15.8131 13.9211 15.4091 13.3761 14.8705ZM2.12393 26.3973L8.54248 24.7621C10.4156 25.751 12.4783 26.2108 14.5342 26.2108C21.6883 26.2108 27.4998 20.4003 27.4998 13.3218C27.4998 9.88973 26.1526 6.66413 23.7411 4.28032L23.7401 4.27937C21.3266 1.82697 17.9975 0.5 14.6023 0.5C7.38379 0.5 1.56719 6.30741 1.63671 13.3915C1.63717 15.5721 2.23875 17.6759 3.23642 19.5753L1.51862 25.7793L1.28859 26.6101L2.12393 26.3973ZM14.6023 23.1235H14.5576C12.8167 23.1159 11.085 22.6657 9.61496 21.7812L9.59727 21.7706L9.57876 21.7614L9.17009 21.5594L9.00409 21.4773L8.82468 21.5232L5.70034 22.3219L6.50262 19.3084L6.5611 19.0887L6.43401 18.9002L6.16628 18.5031C3.32112 13.9569 4.68363 7.94591 9.34326 5.13117C14.0225 2.30469 20.0487 3.65993 22.8961 8.26544C25.7502 12.882 24.3862 18.8313 19.7251 21.6469L19.7189 21.6507L19.7128 21.6546C18.231 22.6098 16.4187 23.1235 14.6023 23.1235Z" stroke="#6D6D6D" stroke-opacity="0.54"/>
</svg>
