<svg width="42" height="43" viewBox="0 0 42 43" fill="none" xmlns="http://www.w3.org/2000/svg">
<path d="M21.0499 2.92131C13.6264 2.92131 6.61238 1.92156 0 0V43C6.62025 41.0757 13.6343 40.076 21.0499 40.076C28.3841 40.076 35.3797 41.0516 42 43V0C35.3797 1.94844 28.392 2.92131 21.0499 2.92131ZM32.6812 6.59244L32.4266 7.00362C32.1877 7.39062 31.9751 7.7185 31.6811 8.18075C31.2874 8.78544 30.5498 9.98675 29.6625 11.5321C29.4158 11.9594 29.1139 12.4727 28.8015 13.0263L26.9955 16.1492L26.3235 17.3505L24.5438 20.5244C23.9453 21.6075 23.3546 22.6744 22.764 23.7333V24.8002C22.764 26.2784 22.7955 27.8909 22.8454 29.326C22.869 29.9817 22.8953 31.1481 22.9268 32.3817C22.9583 33.8517 22.9924 35.3729 23.0344 36.1442L23.0422 36.3807V36.4049L22.7955 36.3377L22.5094 36.2624C22.2036 36.194 21.8942 36.1438 21.5828 36.1119C21.1949 36.0791 20.8051 36.0791 20.4172 36.1119C20.0079 36.1553 19.6025 36.2307 19.2045 36.3377L18.9578 36.4049V36.3807L18.9656 36.1442C18.9997 35.3809 19.0391 33.8517 19.0732 32.3817C19.0969 31.1481 19.131 29.9791 19.1546 29.326C19.2109 27.8181 19.2381 26.3092 19.236 24.8002V23.7333L17.4563 20.5244C16.8735 19.4736 16.2671 18.3986 15.6844 17.3505C15.4534 16.9474 15.2329 16.5442 15.0124 16.1492C14.4874 15.2166 13.8075 14.0503 13.2064 13.0263C12.9145 12.5312 12.6274 12.0331 12.3454 11.5321C11.6984 10.3989 11.0253 9.28143 10.3268 8.18075C10.0328 7.7185 9.8175 7.39062 9.58125 7.00362L9.32662 6.59244L9.786 6.72681C10.3687 6.89613 10.9672 6.97944 11.6077 6.97944C12.2482 6.97944 12.8625 6.89613 13.4374 6.72681L13.5765 6.68381L13.65 6.81012C14.7814 8.901 17.8264 14.0234 19.6455 17.0898C20.2676 18.1487 20.769 18.9791 21.0157 19.4064V19.3984V19.4064L22.386 17.0898C24.2077 14.0314 27.2501 8.90906 28.3815 6.81012L28.455 6.68381L28.5941 6.72681C29.169 6.89613 29.7833 6.97944 30.4238 6.97944C31.0643 6.97944 31.6628 6.89613 32.2455 6.72681L32.6812 6.59244V6.59244Z" fill="#7134F1"/>
</svg>
