<svg width="155" height="62" viewBox="0 0 155 62" fill="none" xmlns="http://www.w3.org/2000/svg">
<path d="M47.28 18.1625L42.42 27.5625V32.2025H39V27.5625L34.14 18.1625H38.02L40.74 24.0425L43.44 18.1625H47.28ZM57.398 29.7225H52.158L51.318 32.2025H47.738L52.818 18.1625H56.778L61.858 32.2025H58.238L57.398 29.7225ZM56.518 27.0825L54.778 21.9425L53.058 27.0825H56.518ZM75.9641 32.2025H72.5441L66.8241 23.5425V32.2025H63.4041V18.1625H66.8241L72.5441 26.8625V18.1625H75.9641V32.2025Z" fill="#6357EB"/>
<path d="M26.56 15.92L16.84 34.72V44H10V34.72L0.28 15.92H8.04L13.48 27.68L18.88 15.92H26.56Z" fill="#6357EB"/>
<path d="M28.32 30.8314V58.9114H21.48V30.8314H28.32Z" fill="#6357EB"/>
<path d="M42.66 35.4284V49.4684H39.24V35.4284H42.66ZM57.6984 49.4684H54.2784L48.5584 40.8084V49.4684H45.1384V35.4284H48.5584L54.2784 44.1284V35.4284H57.6984V49.4684ZM73.3575 35.4284L68.3775 49.4684H64.0975L59.1175 35.4284H62.7575L66.2375 46.0284L69.7375 35.4284H73.3575ZM78.2069 35.4284V49.4684H74.7869V35.4284H78.2069ZM90.7853 35.4284V38.1684H87.0653V49.4684H83.6453V38.1684H79.9253V35.4284H90.7853ZM101.242 46.9884H96.0017L95.1617 49.4684H91.5817L96.6617 35.4284H100.622L105.702 49.4684H102.082L101.242 46.9884ZM100.362 44.3484L98.6217 39.2084L96.9017 44.3484H100.362ZM117.348 35.4284V38.1684H113.628V49.4684H110.208V38.1684H106.488V35.4284H117.348ZM122.484 35.4284V49.4684H119.064V35.4284H122.484ZM131.603 49.6084C130.283 49.6084 129.069 49.3017 127.963 48.6884C126.869 48.0751 125.996 47.2217 125.343 46.1284C124.703 45.0217 124.383 43.7817 124.383 42.4084C124.383 41.035 124.703 39.8017 125.343 38.7084C125.996 37.6151 126.869 36.7617 127.963 36.1484C129.069 35.5351 130.283 35.2284 131.603 35.2284C132.923 35.2284 134.129 35.5351 135.223 36.1484C136.329 36.7617 137.196 37.6151 137.823 38.7084C138.463 39.8017 138.783 41.035 138.783 42.4084C138.783 43.7817 138.463 45.0217 137.823 46.1284C137.183 47.2217 136.316 48.0751 135.223 48.6884C134.129 49.3017 132.923 49.6084 131.603 49.6084ZM131.603 46.4884C132.723 46.4884 133.616 46.1151 134.283 45.3684C134.963 44.6217 135.303 43.6351 135.303 42.4084C135.303 41.1684 134.963 40.1817 134.283 39.4484C133.616 38.7017 132.723 38.3284 131.603 38.3284C130.469 38.3284 129.563 38.695 128.883 39.4284C128.216 40.1617 127.883 41.155 127.883 42.4084C127.883 43.6484 128.216 44.6417 128.883 45.3884C129.563 46.1217 130.469 46.4884 131.603 46.4884ZM153.245 49.4684H149.825L144.105 40.8084V49.4684H140.685V35.4284H144.105L149.825 44.1284V35.4284H153.245V49.4684Z" fill="#6357EB"/>
</svg>
