<svg width="26" height="26" viewBox="0 0 26 26" fill="none" xmlns="http://www.w3.org/2000/svg">
<path fill-rule="evenodd" clip-rule="evenodd" d="M13 1.08325C6.41876 1.08325 1.08334 6.41867 1.08334 12.9999C1.08334 19.5812 6.41876 24.9166 13 24.9166C19.5813 24.9166 24.9167 19.5812 24.9167 12.9999C24.9167 6.41867 19.5813 1.08325 13 1.08325ZM18.1653 10.9849C18.2605 10.8762 18.3329 10.7496 18.3783 10.6124C18.4238 10.4753 18.4413 10.3305 18.43 10.1865C18.4186 10.0425 18.3786 9.9022 18.3122 9.77389C18.2459 9.64559 18.1545 9.53185 18.0435 9.43937C17.9326 9.3469 17.8042 9.27755 17.666 9.2354C17.5279 9.19326 17.3827 9.17918 17.239 9.19398C17.0953 9.20879 16.956 9.25218 16.8293 9.32161C16.7026 9.39103 16.5911 9.48509 16.5013 9.59825L11.843 15.1872L9.43259 12.7757C9.22828 12.5783 8.95462 12.4691 8.67058 12.4716C8.38653 12.4741 8.11482 12.588 7.91396 12.7889C7.7131 12.9897 7.59917 13.2614 7.5967 13.5455C7.59423 13.8295 7.70342 14.1032 7.90076 14.3075L11.1508 17.5575C11.2572 17.6639 11.3846 17.7469 11.525 17.8013C11.6653 17.8557 11.8154 17.8803 11.9657 17.8735C12.1161 17.8666 12.2633 17.8286 12.3981 17.7617C12.5329 17.6948 12.6523 17.6005 12.7487 17.4849L18.1653 10.9849Z" fill="#6357EB"/>
</svg>
