<svg width="26" height="27" viewBox="0 0 26 27" fill="none" xmlns="http://www.w3.org/2000/svg">
<path fill-rule="evenodd" clip-rule="evenodd" d="M13 1.1123C6.41875 1.1123 1.08333 6.49807 1.08333 13.1414C1.08333 19.7848 6.41875 25.1706 13 25.1706C19.5813 25.1706 24.9167 19.7848 24.9167 13.1414C24.9167 6.49807 19.5813 1.1123 13 1.1123ZM18.1653 11.1074C18.2604 10.9977 18.3329 10.8698 18.3783 10.7314C18.4237 10.593 18.4413 10.4468 18.43 10.3014C18.4186 10.1561 18.3786 10.0145 18.3122 9.88496C18.2458 9.75544 18.1545 9.64063 18.0435 9.54728C17.9325 9.45393 17.8042 9.38393 17.666 9.34139C17.5279 9.29885 17.3827 9.28463 17.239 9.29958C17.0953 9.31452 16.956 9.35832 16.8293 9.4284C16.7026 9.49849 16.5911 9.59343 16.5013 9.70766L11.843 15.3493L9.43258 12.9151C9.22826 12.7159 8.95461 12.6056 8.67057 12.6081C8.38652 12.6106 8.11481 12.7256 7.91395 12.9284C7.71309 13.1311 7.59915 13.4054 7.59669 13.6921C7.59422 13.9789 7.70341 14.2551 7.90075 14.4614L11.1508 17.742C11.2572 17.8494 11.3846 17.9332 11.525 17.9881C11.6653 18.0431 11.8154 18.0679 11.9657 18.061C12.116 18.0541 12.2633 18.0156 12.3981 17.9481C12.5329 17.8806 12.6523 17.7854 12.7487 17.6688L18.1653 11.1074Z" fill="white"/>
</svg>
