<svg width="188" height="114" viewBox="0 0 188 114" fill="none" xmlns="http://www.w3.org/2000/svg">
<path d="M166.937 113.861H8.36682C6.24605 113.859 4.21283 113.066 2.71323 111.656C1.21362 110.245 0.370091 108.334 0.367714 106.339V22.7166C0.370091 20.7224 1.21362 18.8105 2.71323 17.4005C4.21283 15.9904 6.24605 15.1972 8.36682 15.1949H166.937C169.058 15.1972 171.091 15.9904 172.591 17.4005C174.09 18.8106 174.934 20.7224 174.936 22.7166V106.339C174.934 108.334 174.09 110.245 172.591 111.656C171.091 113.066 169.058 113.859 166.937 113.861V113.861ZM8.36682 16.0798C6.49556 16.0818 4.70155 16.7817 3.37837 18.0259C2.05519 19.2701 1.3109 20.957 1.30879 22.7166V106.339C1.3109 108.099 2.05519 109.786 3.37837 111.03C4.70155 112.274 6.49556 112.974 8.36682 112.976H166.937C168.809 112.974 170.603 112.274 171.926 111.03C173.249 109.786 173.993 108.099 173.995 106.339V22.7166C173.993 20.957 173.249 19.2701 171.926 18.0259C170.603 16.7817 168.809 16.0818 166.937 16.0798H8.36682Z" fill="#3F3D56"/>
<path d="M126.754 48.5171H96.169C95.6074 48.5171 95.0688 48.7269 94.6717 49.1003C94.2746 49.4737 94.0516 49.9801 94.0516 50.5081C94.0516 51.0362 94.2746 51.5426 94.6717 51.916C95.0688 52.2894 95.6074 52.4992 96.169 52.4992H126.754C127.315 52.4992 127.854 52.2894 128.251 51.916C128.648 51.5426 128.871 51.0362 128.871 50.5081C128.871 49.9801 128.648 49.4737 128.251 49.1003C127.854 48.7269 127.315 48.5171 126.754 48.5171Z" fill="#3F3D56"/>
<path d="M156.567 61.1268H95.7644C94.8185 61.1268 94.0516 62.0206 94.0516 63.1178C94.0516 64.2151 94.8185 65.1089 95.7644 65.1089H156.567C157.513 65.1089 158.28 64.2151 158.28 63.1178C158.28 62.0206 157.513 61.1268 156.567 61.1268Z" fill="#3F3D56"/>
<path d="M156.567 74.0405H95.7644C94.8185 74.0405 94.0516 74.9343 94.0516 76.0315C94.0516 77.1288 94.8185 78.0225 95.7644 78.0225H156.567C157.513 78.0225 158.28 77.1288 158.28 76.0315C158.28 74.9343 157.513 74.0405 156.567 74.0405Z" fill="#3F3D56"/>
<path d="M72.8303 95.4996H20.1303C18.8204 95.4982 17.5646 95.0083 16.6384 94.1374C15.7122 93.2665 15.1911 92.0856 15.1897 90.8539V35.5478C15.1911 34.3161 15.7122 33.1353 16.6384 32.2643C17.5646 31.3934 18.8204 30.9035 20.1303 30.9021H72.8303C74.1401 30.9035 75.3959 31.3934 76.3222 32.2643C77.2484 33.1353 77.7694 34.3161 77.7709 35.5478V90.8539C77.7694 92.0856 77.2484 93.2665 76.3222 94.1374C75.3959 95.0083 74.1401 95.4982 72.8303 95.4996V95.4996Z" fill="#6357EB"/>
<path d="M170.702 32.4503C180.057 32.4503 187.641 25.3191 187.641 16.5222C187.641 7.72528 180.057 0.593994 170.702 0.593994C161.346 0.593994 153.762 7.72528 153.762 16.5222C153.762 25.3191 161.346 32.4503 170.702 32.4503Z" fill="#6357EB"/>
<path d="M169.75 22.9701C169.288 22.971 168.838 22.8305 168.469 22.57L168.446 22.5538L163.621 19.0804C163.397 18.9196 163.209 18.7189 163.067 18.4896C162.926 18.2604 162.834 18.0072 162.797 17.7445C162.759 17.4818 162.778 17.2148 162.85 16.9587C162.923 16.7027 163.049 16.4626 163.22 16.2522C163.391 16.0419 163.605 15.8653 163.849 15.7328C164.093 15.6002 164.363 15.5142 164.642 15.4797C164.922 15.4452 165.206 15.4628 165.478 15.5316C165.75 15.6004 166.005 15.719 166.228 15.8806L169.353 18.1338L176.738 9.07758C176.91 8.86753 177.123 8.69126 177.367 8.55884C177.611 8.42641 177.88 8.34042 178.159 8.30578C178.438 8.27115 178.721 8.28854 178.993 8.35696C179.265 8.42538 179.52 8.54349 179.744 8.70455L179.698 8.76317L179.745 8.70541C180.195 9.03104 180.49 9.51144 180.565 10.0412C180.639 10.571 180.487 11.1069 180.141 11.5313L171.455 22.1836C171.254 22.429 170.996 22.6277 170.7 22.7641C170.404 22.9005 170.079 22.971 169.75 22.9701Z" fill="white"/>
<path d="M61.0841 50C63.4364 50 65.3488 52.1637 65.3488 54.8333V74.1667C65.3488 76.8326 63.4364 79 61.0841 79H31.231C28.8754 79 26.9663 76.8326 26.9663 74.1667V54.8333C26.9663 52.1637 28.8754 50 31.231 50H61.0841ZM45.0914 59.6667C44.505 59.6667 44.0252 60.2104 44.0252 60.875C44.0252 61.5396 44.505 62.0833 45.0914 62.0833H60.0179C60.6043 62.0833 61.0841 61.5396 61.0841 60.875C61.0841 60.2104 60.6043 59.6667 60.0179 59.6667H45.0914ZM45.0914 69.3333H60.0179C60.6043 69.3333 61.0841 68.7896 61.0841 68.125C61.0841 67.4604 60.6043 66.9167 60.0179 66.9167H45.0914C44.505 66.9167 44.0252 67.4604 44.0252 68.125C44.0252 68.7896 44.505 69.3333 45.0914 69.3333ZM37.9013 57.25C37.9013 56.4117 37.3016 55.732 36.502 55.732C35.8223 55.732 35.2225 56.4117 35.2225 57.25V57.7031C34.8494 57.7938 34.4362 57.9221 34.163 58.0883C33.1675 58.6018 32.3019 59.5534 32.0913 60.9354C31.9734 61.7057 32.036 62.4534 32.3185 63.1255C32.5951 63.7901 33.0302 64.2583 33.472 64.5982C34.243 65.1948 35.2625 65.5422 36.0422 65.8065L36.1888 65.8518C37.1217 66.1766 37.7481 66.4107 38.1412 66.7354C38.3078 66.8714 38.3678 66.9771 38.3878 67.0451C38.4144 67.1055 38.4544 67.2414 38.4078 67.5435C38.3678 67.8078 38.2412 68.0344 37.8747 68.2081C37.4682 68.4044 36.8085 68.5026 35.9555 68.3516C35.5557 68.276 34.8427 68.0042 34.2097 67.7625C34.0631 67.7021 33.9165 67.6492 33.7832 67.5964C33.0862 67.332 32.3312 67.7625 32.0986 68.5555C31.8661 69.3484 32.2439 70.2018 32.9422 70.3982C33.0229 70.4964 33.1228 70.5341 33.2374 70.5794C33.7032 70.7833 34.5895 71.1005 35.2225 71.2667V71.75C35.2225 72.5883 35.8223 73.268 36.502 73.268C37.3016 73.268 37.9013 72.5883 37.9013 71.75V71.3346C38.2545 71.2591 38.601 71.0779 38.9209 70.9872C39.9737 70.4813 40.8133 69.4995 41.0332 68.0646C41.1532 67.2792 41.0999 66.524 40.8333 65.8367C40.5734 65.157 40.1536 64.6586 39.7072 64.2961C38.9009 63.624 37.8214 63.2615 37.0151 62.982L36.9018 62.9669C36.0155 62.6422 35.3758 62.4156 34.9693 62.0984C34.7961 61.9625 34.7428 61.8719 34.7294 61.8341C34.7161 61.8039 34.6761 61.7133 34.7161 61.4565C34.7428 61.3055 34.8427 61.0563 35.2625 60.8448C35.6357 60.6258 36.3554 60.5049 37.1683 60.5805C37.4615 60.7013 38.3611 60.8977 38.621 60.9732C39.3273 61.1922 40.0603 60.7089 40.2469 59.9008C40.4402 59.1003 40.0137 58.2695 39.3007 58.0581C39.0075 57.9674 38.3411 57.8164 37.9013 57.7258V57.25V57.25Z" fill="white"/>
</svg>
