<svg width="188" height="114" viewBox="0 0 188 114" fill="none" xmlns="http://www.w3.org/2000/svg">
<path d="M166.857 113.861H8.2864C6.16563 113.859 4.13241 113.066 2.6328 111.656C1.1332 110.245 0.28967 108.334 0.287292 106.339V22.7166C0.28967 20.7224 1.1332 18.8105 2.6328 17.4005C4.13241 15.9904 6.16563 15.1972 8.2864 15.1949H166.857C168.978 15.1972 171.011 15.9904 172.51 17.4005C174.01 18.8106 174.854 20.7224 174.856 22.7166V106.339C174.854 108.334 174.01 110.245 172.51 111.656C171.011 113.066 168.978 113.859 166.857 113.861ZM8.2864 16.0798C6.41514 16.0818 4.62113 16.7817 3.29795 18.0259C1.97477 19.2701 1.23048 20.957 1.22836 22.7166V106.339C1.23048 108.099 1.97477 109.786 3.29795 111.03C4.62113 112.274 6.41514 112.974 8.2864 112.976H166.857C168.728 112.974 170.522 112.274 171.845 111.03C173.169 109.786 173.913 108.099 173.915 106.339V22.7166C173.913 20.957 173.169 19.2701 171.845 18.0259C170.522 16.7817 168.728 16.0818 166.857 16.0798H8.2864Z" fill="#3F3D56"/>
<path d="M126.673 48.5171H96.0886C95.527 48.5171 94.9884 48.7269 94.5913 49.1003C94.1942 49.4737 93.9712 49.9801 93.9712 50.5081C93.9712 51.0362 94.1942 51.5426 94.5913 51.916C94.9884 52.2894 95.527 52.4992 96.0886 52.4992H126.673C127.235 52.4992 127.774 52.2894 128.171 51.916C128.568 51.5426 128.791 51.0362 128.791 50.5081C128.791 49.9801 128.568 49.4737 128.171 49.1003C127.774 48.7269 127.235 48.5171 126.673 48.5171Z" fill="#3F3D56"/>
<path d="M156.486 61.1268H95.684C94.7381 61.1268 93.9712 62.0206 93.9712 63.1178C93.9712 64.2151 94.7381 65.1089 95.684 65.1089H156.486C157.432 65.1089 158.199 64.2151 158.199 63.1178C158.199 62.0206 157.432 61.1268 156.486 61.1268Z" fill="#3F3D56"/>
<path d="M156.486 74.0405H95.684C94.7381 74.0405 93.9712 74.9343 93.9712 76.0315C93.9712 77.1288 94.7381 78.0225 95.684 78.0225H156.486C157.432 78.0225 158.199 77.1288 158.199 76.0315C158.199 74.9343 157.432 74.0405 156.486 74.0405Z" fill="#3F3D56"/>
<path d="M72.7497 95.4996H20.0498C18.7399 95.4982 17.4841 95.0083 16.5579 94.1374C15.6316 93.2665 15.1106 92.0856 15.1091 90.8539V35.5478C15.1106 34.3161 15.6316 33.1353 16.5579 32.2643C17.4841 31.3934 18.7399 30.9035 20.0498 30.9021H72.7497C74.0596 30.9035 75.3154 31.3934 76.2416 32.2643C77.1679 33.1353 77.6889 34.3161 77.6904 35.5478V90.8539C77.6889 92.0856 77.1679 93.2665 76.2416 94.1374C75.3154 95.0083 74.0596 95.4982 72.7497 95.4996Z" fill="#6357EB"/>
<path d="M170.621 32.4503C179.977 32.4503 187.561 25.3191 187.561 16.5222C187.561 7.72528 179.977 0.593994 170.621 0.593994C161.266 0.593994 153.682 7.72528 153.682 16.5222C153.682 25.3191 161.266 32.4503 170.621 32.4503Z" fill="#6357EB"/>
<path d="M169.669 22.9701C169.207 22.971 168.758 22.8305 168.388 22.57L168.365 22.5538L163.541 19.0804C163.316 18.9196 163.128 18.7189 162.987 18.4896C162.845 18.2604 162.753 18.0072 162.716 17.7445C162.679 17.4818 162.697 17.2148 162.77 16.9587C162.842 16.7027 162.968 16.4626 163.139 16.2522C163.311 16.0419 163.525 15.8653 163.769 15.7328C164.013 15.6002 164.282 15.5142 164.562 15.4797C164.841 15.4452 165.125 15.4628 165.397 15.5316C165.669 15.6004 165.924 15.719 166.148 15.8806L169.273 18.1338L176.658 9.07758C176.829 8.86753 177.043 8.69126 177.286 8.55884C177.53 8.42641 177.799 8.34042 178.078 8.30578C178.357 8.27115 178.641 8.28854 178.913 8.35696C179.185 8.42538 179.44 8.54349 179.663 8.70455L179.617 8.76317L179.664 8.70541C180.115 9.03104 180.41 9.51144 180.484 10.0412C180.558 10.571 180.406 11.1069 180.061 11.5313L171.375 22.1836C171.174 22.429 170.915 22.6277 170.62 22.7641C170.324 22.9005 169.999 22.971 169.669 22.9701Z" fill="white"/>
<path d="M62.1879 70.0947C62.1879 73.1148 59.305 75.5635 55.8091 75.5635C52.3131 75.5635 49.4302 73.1148 49.4302 70.1562C49.4302 67.1361 52.3131 64.749 55.8091 64.749C56.5657 64.749 57.2813 64.8803 57.9561 65.0838V55.124L40.7843 60.3125L40.7842 74.5381C40.7239 77.5527 37.9001 80 34.2848 80C30.6694 80 27.9059 77.5527 27.9059 74.5312C27.9059 71.5111 30.7888 69.124 34.2848 69.124C35.0414 69.124 35.757 69.2553 36.4311 69.4588V53.6475C36.4311 52.7608 37.1059 51.8271 37.9343 51.5611L59.3379 45.1019C59.5719 45.0452 59.9207 45 60.1018 45C61.2864 45 62.2462 45.9803 62.2482 47.1868L62.1879 70.0947Z" fill="white"/>
</svg>
